<svg xmlns="http://www.w3.org/2000/svg" xmlns:xlink="http://www.w3.org/1999/xlink" viewBox="0,0,256,256" width="48px" height="48px" fill-rule="nonzero"><g fill="#ffffff" fill-rule="nonzero" stroke="none" stroke-width="1" stroke-linecap="butt" stroke-linejoin="miter" stroke-miterlimit="10" stroke-dasharray="" stroke-dashoffset="0" font-family="none" font-weight="none" font-size="none" text-anchor="none" style="mix-blend-mode: normal"><path d="M0,256v-256h256v256z" id="bgRectangle"></path></g><g fill="none" fill-rule="nonzero" stroke="none" stroke-width="1" stroke-linecap="butt" stroke-linejoin="miter" stroke-miterlimit="10" stroke-dasharray="" stroke-dashoffset="0" font-family="none" font-weight="none" font-size="none" text-anchor="none" style="mix-blend-mode: normal"><g transform="scale(5.33333,5.33333)"><path d="M41,10h-16v28h16c0.553,0 1,-0.447 1,-1v-26c0,-0.553 -0.447,-1 -1,-1z" fill="#4caf50"></path><path d="M32,15h7v3h-7zM32,25h7v3h-7zM32,30h7v3h-7zM32,20h7v3h-7zM25,15h5v3h-5zM25,25h5v3h-5zM25,30h5v3h-5zM25,20h5v3h-5z" fill="#ffffff"></path><path d="M27,42l-21,-4v-28l21,-4z" fill="#2e7d32"></path><path d="M19.129,31l-2.411,-4.561c-0.092,-0.171 -0.186,-0.483 -0.284,-0.938h-0.037c-0.046,0.215 -0.154,0.541 -0.324,0.979l-2.421,4.52h-3.757l4.462,-7.001l-4.083,-6.999h3.837l2.001,4.196c0.156,0.331 0.296,0.725 0.42,1.179h0.04c0.078,-0.271 0.224,-0.68 0.439,-1.22l2.226,-4.155h3.515l-4.199,6.939l4.316,7.059h-3.74z" fill="#ffffff"></path></g></g></svg>