<svg xmlns="http://www.w3.org/2000/svg" xmlns:xlink="http://www.w3.org/1999/xlink" viewBox="0,0,256,256" width="48px" height="48px" fill-rule="nonzero"><g fill="#ffffff" fill-rule="nonzero" stroke="none" stroke-width="1" stroke-linecap="butt" stroke-linejoin="miter" stroke-miterlimit="10" stroke-dasharray="" stroke-dashoffset="0" font-family="none" font-weight="none" font-size="none" text-anchor="none" style="mix-blend-mode: normal"><path d="M0,256v-256h256v256z" id="bgRectangle"></path></g><g fill="none" fill-rule="nonzero" stroke="none" stroke-width="1" stroke-linecap="butt" stroke-linejoin="miter" stroke-miterlimit="10" stroke-dasharray="" stroke-dashoffset="0" font-family="none" font-weight="none" font-size="none" text-anchor="none" style="mix-blend-mode: normal"><g transform="scale(5.33333,5.33333)"><path d="M10,12l3,25l-8.019,-8.019c-1.189,-1.189 -1.508,-2.996 -0.796,-4.52z" fill="#1565c0"></path><path d="M27.319,6.319c-0.845,-0.845 -1.99,-1.319 -3.184,-1.319c-0.745,0 -1.479,0.185 -2.135,0.538l-12,6.462v20.343c0,1.061 0.421,2.078 1.172,2.828l1.828,1.829h22v-5l7,-11z" fill="#42a5f5"></path><path d="M10,12h21.343c1.061,0 2.078,0.421 2.828,1.172l7.829,7.828v16h-7z" fill="#1565c0"></path><path d="M35,37h-22l6,6h16z" fill="#85cbf8"></path></g></g></svg>